<?xml version="1.0" ?><!DOCTYPE svg  PUBLIC '-//W3C//DTD SVG 1.1//EN'  'http://www.w3.org/Graphics/SVG/1.1/DTD/svg11.dtd'><svg height="512px" style="enable-background:new 0 0 512 512;" version="1.1" viewBox="0 0 512 512" width="512px" xml:space="preserve" xmlns="http://www.w3.org/2000/svg" xmlns:xlink="http://www.w3.org/1999/xlink"><g id="_x31_41-git"><g><path d="M45.304,220.781c0,25.978,16.634,61.606,42.613,70.335v1.026    c-19.304,8.521-24.643,51.954,1.026,67.562v1.026c-28.031,9.242-46.514,27.005-46.514,57.707c0,52.88,50.108,67.562,93.951,67.562    c53.393,0,93.13-19.202,93.13-78.036c0-72.388-103.705-45.69-103.705-85.018c0-13.859,7.392-19.199,20.227-21.87    c42.612-7.904,69.308-41.07,69.308-84.4c0-7.495-1.541-14.581-4.107-21.562c6.88-1.541,13.554-3.39,20.228-5.648v-51.853    c-17.661,6.982-36.656,12.116-55.96,12.116C120.259,117.898,45.304,151.063,45.304,220.781L45.304,220.781z M135.353,388.969    c17.457,0,42.304,3.08,42.304,25.668c0,22.385-20.021,27.005-38.709,27.005c-17.763,0-44.46-2.772-44.46-25.875    C94.59,392.869,117.179,388.969,135.353,388.969L135.353,388.969z M132.067,256c-22.589,0-32.138-13.347-32.138-34.704    c0-50.62,62.633-50.107,62.633-0.515C162.562,241.625,154.349,256,132.067,256z M469.571,306.824v50.314    c-13.657,7.493-31.316,10.062-46.721,10.062c-54.932,0-61.4-43.332-61.4-87.993v-90.051h0.513v-1.025    c-7.188,0-7.494-1.645-24.642,1.025v-48.771h24.642c0-22.897,0.31-31.831-1.54-42.303h58.221    c-2.055,14.17-1.541,28.236-1.541,42.303h52.365v48.771c0,0-19.818-1.025-52.365-1.025v93.538    c0,15.198,3.388,33.681,22.384,33.681C449.548,315.35,461.355,312.475,469.571,306.824z M319.66,63.685    c0,19.201-14.888,37.169-34.704,37.169c-20.331,0-35.425-17.66-35.425-37.169c0-19.817,14.888-37.684,35.425-37.684    C305.286,26.001,319.66,44.483,319.66,63.685z M313.294,140.18c-1.849,14.99-1.642,205.149,0,223.633h-56.987    c1.643-18.584,1.848-208.437,0-223.633H313.294z" style="fill:#F05033;"/></g></g><g id="Layer_1"/></svg>