<?xml version="1.0" encoding="utf-8"?>
<!-- Generator: Adobe Illustrator 16.0.0, SVG Export Plug-In . SVG Version: 6.00 Build 0)  -->
<!DOCTYPE svg PUBLIC "-//W3C//DTD SVG 1.1//EN" "http://www.w3.org/Graphics/SVG/1.1/DTD/svg11.dtd">
<svg version="1.1" id="Layer_1" xmlns="http://www.w3.org/2000/svg" xmlns:xlink="http://www.w3.org/1999/xlink" x="0px" y="0px"
	 width="512px" height="512px" viewBox="0 0 512 512" enable-background="new 0 0 512 512" xml:space="preserve">
<g>
	<path fill="#E31937" d="M55.02,184.145c0-30.669-1.363-61.679-1.363-86.213c0-17.721-3.749-26.58-18.742-26.58v-6.133
		c16.356,0,45.663-2.045,63.723-2.045c47.026,0,90.985,17.719,90.985,70.538c0,31.691-28.284,54.182-57.59,61.679l75.309,87.577
		c7.156,8.518,13.29,11.244,21.468,13.97v6.135c-8.86,0-17.72-1.363-26.58-1.363c-8.86,0-17.72,1.363-26.579,1.363v-6.135
		c1.022-0.682,2.726-1.704,2.726-2.385c0-1.022-1.363-3.747-2.726-5.451l-58.271-70.879c-8.178-9.882-18.742-17.721-35.099-19.424
		v77.694c0,10.564,4.43,20.445,16.016,20.445v6.135c-8.519,0-18.742-1.363-30.328-1.363c-10.223,0-20.446,1.363-28.966,1.363v-6.135
		c11.586,0,16.017-9.881,16.017-20.445V184.145z M82.281,187.892c4.089,0.682,9.541,2.045,15.675,2.045
		c37.484,0,62.019-22.491,62.019-56.908c0-33.394-21.127-59.633-59.974-59.633c-13.631,0-16.357,0.682-16.357,11.586
		c0,15.674-1.363,34.077-1.363,48.729V187.892z"/>
	<path fill="#E31937" d="M424.06,91.797c0-10.564-3.408-20.446-17.038-20.446v-6.133c10.562,0,20.787,1.362,31.009,1.362
		c11.587,0,21.809-1.362,30.329-1.362v6.133c-11.588,0-14.995,9.882-14.995,20.446l-1.022,184.694
		c0,14.313,8.179,20.445,19.766,20.445v6.135c-8.52,0-17.039-1.363-25.558-1.363c-8.52,0-17.037,1.363-25.558,1.363v-2.386
		c2.045-2.045,3.408-5.111,3.408-9.201v-16.697c-23.513,16.018-49.411,32.374-81.444,32.374c-50.432,0-85.191-32.033-85.191-87.236
		l-1.022-128.128c0-10.564-4.77-20.446-17.718-20.446v-6.133c10.904,0,21.126,1.362,31.691,1.362
		c11.585,0,21.809-1.362,31.689-1.362v6.133c-12.948,0-16.356,9.882-16.356,20.446l-1.022,126.765
		c0,53.839,37.484,70.879,64.746,70.879c26.58,0,62.019-10.905,75.31-32.374L424.06,91.797z"/>
</g>
<g>
	<path d="M37.87,377.456c3.064-0.722,4.506-2.163,4.506-5.229v-23.163c0-7.75-0.451-15.501-0.451-23.162
		c0-4.235-0.451-6.489-5.047-7.392v-1.981c2.884,0,5.858,0.36,8.742,0.36c2.704,0,5.408-0.36,12.168-0.36
		c16.223,0,24.153,8.111,24.153,17.845c0,9.104-8.292,14.961-16.313,16.944l18.207,21.09c1.352,1.623,4.416,4.598,6.85,5.048v1.981
		c-2.975,0-6.039-0.359-9.013-0.359s-5.948,0.359-8.922,0.359v-1.981c0.631-0.091,0.9-0.45,0.991-1.081
		c0-0.813-0.27-1.624-1.352-2.886l-14.961-17.484c-1.352-1.532-3.245-3.876-5.407-3.876v17.847c0,3.785,0.45,6.488,5.046,7.48v1.981
		c-3.244,0-6.399-0.359-9.643-0.359c-3.245,0-6.309,0.359-9.554,0.359V377.456z M52.021,349.335
		c1.352,0.091,2.433,0.271,3.515,0.271c8.292,0,15.411-5.589,15.411-14.151c0-8.291-3.785-15.681-13.608-15.681
		c-2.343,0-4.868,0.269-4.868,2.523L52.021,349.335z"/>
	<path d="M107.081,361.143l-2.434,7.932c-0.45,1.532-0.631,3.514-0.631,4.506c0,2.164,1.082,3.876,3.245,3.876v1.981
		c-2.614,0-5.137-0.359-7.751-0.359c-2.613,0-5.136,0.359-7.75,0.359v-1.981c3.605-0.722,7.03-9.193,8.742-13.52l19.197-48.488
		h1.082l19.739,50.651c3.154,8.021,3.964,10.995,7.209,11.356v1.981c-3.064,0-6.038-0.359-9.103-0.359
		c-3.064,0-6.038,0.359-9.103,0.359v-1.981c1.893,0,2.975-1.264,2.975-3.336c0-1.262-0.451-2.794-1.082-4.596l-3.155-8.382H107.081z
		 M126.638,356.815l-9.103-23.703l-8.742,23.703H126.638z"/>
	<path d="M152.587,377.456c3.696-0.901,4.687-2.525,4.687-6.398v-26.229c0-7.931-0.9-14.961-0.9-19.376
		c0-3.785-1.353-6.399-4.687-7.301v-1.622c4.235,0,8.381,0.36,12.618,0.36c4.146,0,8.381-0.36,12.617-0.36
		c24.605,0,39.566,10.814,39.566,31.094c0,20.64-11.716,31.814-37.042,31.814c-4.507,0-9.013-0.359-13.429-0.359
		c-4.507,0-8.923,0.359-13.43,0.359V377.456z M166.918,375.113c4.236,0.539,7.751,0.72,11.175,0.72
		c17.215,0,25.867-10.544,25.867-27.849c0-16.313-11.355-27.85-27.309-27.85c-2.884,0-5.678,0.18-9.283,0.359
		c-0.09,7.932-0.451,15.142-0.451,22.713V375.113z"/>
	<path d="M223.237,316.89h35.872c1.983,0,3.784-0.54,6.128-1.441c-0.089,2.614-0.18,4.595-0.18,6.578
		c0,1.804,0.091,3.605,0.18,5.409h-3.425c-1.351-4.236-4.416-6.22-9.283-6.22h-12.798c-0.09,7.39-0.18,15.412-0.27,23.975h12.617
		c3.425,0,6.669-0.993,7.211-4.868h2.883c-0.089,2.614-0.178,5.137-0.178,7.751c0,2.255,0.089,4.598,0.178,6.851h-2.883
		c-0.99-4.236-3.696-5.409-7.211-5.409h-12.617c0,7.212-0.091,15.053-0.091,22.804c0,3.063,2.163,5.138,5.588,5.138v1.981
		c-3.425,0-6.76-0.359-10.185-0.359s-6.669,0.359-10.094,0.359v-1.981c3.605-0.631,5.047-2.074,5.047-5.859v-18.115
		c0-10.816-1.263-24.154-1.263-29.651c0-3.064-2.162-4.237-5.228-4.957V316.89z"/>
	<path d="M308.313,315.448c20.818,0,34.969,11.716,34.969,32.536c0,20.818-14.15,32.535-34.969,32.535
		c-20.82,0-34.972-11.717-34.972-32.535C273.342,327.164,287.493,315.448,308.313,315.448z M308.313,376.734
		c15.321,0,22.441-13.88,22.441-28.75c0-14.872-7.12-28.752-22.441-28.752c-15.323,0-22.442,13.88-22.442,28.752
		C285.871,362.854,292.99,376.734,308.313,376.734z"/>
	<path d="M351.562,377.456c3.065-0.722,4.509-2.163,4.509-5.229v-23.163c0-7.75-0.453-15.501-0.453-23.162
		c0-4.235-0.448-6.489-5.046-7.392v-1.981c2.883,0,5.859,0.36,8.742,0.36c2.705,0,5.408-0.36,12.167-0.36
		c16.223,0,24.154,8.111,24.154,17.845c0,9.104-8.291,14.961-16.313,16.944l18.208,21.09c1.351,1.623,4.416,4.598,6.85,5.048v1.981
		c-2.976,0-6.041-0.359-9.013-0.359c-2.977,0-5.948,0.359-8.925,0.359v-1.981c0.631-0.091,0.902-0.45,0.991-1.081
		c0-0.813-0.27-1.624-1.351-2.886l-14.961-17.484c-1.351-1.532-3.245-3.876-5.406-3.876v17.847c0,3.785,0.448,6.488,5.046,7.48
		v1.981c-3.245,0-6.401-0.359-9.644-0.359c-3.245,0-6.309,0.359-9.556,0.359V377.456z M365.716,349.335
		c1.351,0.091,2.432,0.271,3.514,0.271c8.291,0,15.41-5.589,15.41-14.151c0-8.291-3.785-15.681-13.606-15.681
		c-2.346,0-4.869,0.269-4.869,2.523L365.716,349.335z"/>
	<path d="M407.886,377.456c3.695-0.901,4.687-2.525,4.687-6.398v-26.229c0-7.931-0.902-14.961-0.902-19.376
		c0-3.785-1.351-6.399-4.687-7.301v-1.622c4.238,0,8.383,0.36,12.62,0.36c4.145,0,8.381-0.36,12.616-0.36
		c24.605,0,39.566,10.814,39.566,31.094c0,20.64-11.716,31.814-37.043,31.814c-4.505,0-9.014-0.359-13.429-0.359
		c-4.505,0-8.923,0.359-13.429,0.359V377.456z M422.216,375.113c4.235,0.539,7.752,0.72,11.177,0.72
		c17.213,0,25.866-10.544,25.866-27.849c0-16.313-11.356-27.85-27.31-27.85c-2.884,0-5.678,0.18-9.282,0.359
		c-0.091,7.932-0.451,15.142-0.451,22.713V375.113z"/>
</g>
<g>
	<path d="M80.578,400.285c0-2.406-0.776-4.656-3.879-4.656v-1.396c2.405,0,4.733,0.31,7.061,0.31c2.638,0,4.966-0.31,6.906-0.31
		v1.396c-2.639,0-3.414,2.25-3.414,4.656l-0.233,42.054c0,3.26,1.863,4.657,4.5,4.657v1.396c-1.939,0-3.879-0.311-5.819-0.311
		s-3.88,0.311-5.819,0.311v-0.544c0.464-0.466,0.775-1.164,0.775-2.096v-3.801c-5.354,3.646-11.251,7.37-18.545,7.37
		c-11.483,0-19.398-7.292-19.398-19.863l-0.232-29.174c0-2.406-1.086-4.656-4.035-4.656v-1.396c2.483,0,4.81,0.31,7.216,0.31
		c2.638,0,4.966-0.31,7.216-0.31v1.396c-2.949,0-3.725,2.25-3.725,4.656l-0.233,28.864c0,12.261,8.535,16.139,14.742,16.139
		c6.053,0,14.122-2.483,17.148-7.371L80.578,400.285z"/>
	<path d="M101.758,394.233h1.707c2.483,2.638,4.733,5.586,7.293,8.224l33.287,34.452v-25.606c0-13.578-0.93-14.664-5.975-15.674
		v-1.396c3.026,0,5.277,0.31,7.527,0.31s4.5-0.31,6.75-0.31v1.396c-4.19,1.01-5.122,2.096-5.122,6.054v46.71h-1.708l-39.882-41.202
		v29.562c0,8.147,0.931,9.233,5.432,10.243v1.396c-2.561,0-4.811-0.311-7.062-0.311c-2.948,0-5.199,0.311-7.139,0.311v-1.396
		c3.958-1.01,4.889-2.096,4.889-6.052V394.233z"/>
	<path d="M172.442,395.629c-3.026,0-3.88,2.25-3.88,4.656l-0.387,42.054c0,2.407,1.242,4.657,3.569,4.657v1.396
		c-1.629,0-3.957-0.311-6.595-0.311c-2.329,0-4.656,0.311-6.208,0.311v-1.396c2.172,0,3.414-2.25,3.414-4.657l-0.388-42.054
		c0-2.406-0.854-4.656-3.88-4.656v-1.396c2.406,0,4.733,0.31,7.062,0.31c2.638,0,4.966-0.31,7.293-0.31V395.629z"/>
	<path d="M201.614,449.322l-20.018-50.047c-1.242-3.103-1.707-3.336-3.88-3.646v-1.396c2.405,0,4.811,0.31,7.216,0.31
		c2.406,0,4.812-0.31,7.216-0.31v1.396c-0.775,0.156-2.87,0.622-2.87,1.396c0,0.466,0.233,1.319,0.853,3.104l13.889,39.34
		l14.122-35.304c0.853-2.25,1.008-4.656,1.008-5.122c0-2.404-0.698-3.025-3.336-3.414v-1.396c2.25,0,4.5,0.31,6.75,0.31
		s4.5-0.31,6.828-0.31v1.396c-2.716,0.311-3.569,1.396-4.811,4.346l-20.872,49.348H201.614z"/>
	<path d="M267.021,402.69h-1.395c-0.777-3.491-3.649-5.508-10.166-5.508h-12.104c-0.466,3.412-0.62,9.698-0.62,14.275v7.838h13.578
		c4.347,0,5.819-1.01,6.673-3.958h1.396c-0.078,1.63-0.232,3.414-0.232,5.198c0,1.785,0.154,3.569,0.232,5.277h-1.396
		c-0.854-2.872-2.326-3.88-6.673-3.88h-13.578v23.511h16.138c4.966,0,7.138-2.25,8.535-5.355l1.242,0.233l-1.164,8.458
		c-1.318-0.312-2.716-0.466-4.346-0.544c-1.552-0.154-3.49-0.154-5.974-0.154h-24.985v-1.086c3.181-0.154,4.345-1.243,4.345-4.657
		V420.77c0-24.053-0.31-24.675-4.345-24.83v-1.396h30.882c1.706,0,2.172-0.466,2.562-1.24h1.395V402.69z"/>
	<path d="M278.268,421.313c0-6.983-0.309-14.045-0.309-19.631c0-4.037-0.854-6.054-4.268-6.054v-1.396
		c3.726,0,10.397-0.466,14.509-0.466c10.708,0,20.719,4.035,20.719,16.061c0,7.218-6.439,12.338-13.113,14.044l17.147,19.942
		c1.63,1.938,3.027,2.562,4.89,3.182v1.396c-2.02,0-4.036-0.311-6.054-0.311s-4.035,0.311-6.052,0.311v-1.396
		c0.232-0.154,0.62-0.388,0.62-0.544c0-0.233-0.31-0.854-0.62-1.24l-13.271-16.141c-1.86-2.25-4.267-4.034-7.99-4.422v17.689
		c0,2.407,1.01,4.657,3.647,4.657v1.396c-1.939,0-4.268-0.311-6.905-0.311c-2.328,0-4.657,0.311-6.596,0.311v-1.396
		c2.638,0,3.645-2.25,3.645-4.657V421.313z M284.477,422.166c0.932,0.155,2.174,0.466,3.57,0.466
		c8.535,0,14.121-5.122,14.121-12.959c0-7.603-4.812-13.578-13.657-13.578c-3.103,0-3.724,0.156-3.724,2.64
		c0,3.568-0.311,7.758-0.311,11.094V422.166z"/>
	<path d="M349.264,403.077c-1.63-5.042-7.218-7.292-12.104-7.292c-6.286,0-12.338,3.258-12.338,10.319
		c0,16.682,27.389,9.312,27.389,27.856c0,10.086-7.293,15.361-16.837,15.361c-4.733,0-9.543-0.854-14.354-2.25l-0.312-8.069h1.397
		c1.784,5.51,7.992,7.839,13.191,7.839c6.13,0,11.481-3.027,11.481-9.856c0-16.449-27.389-7.836-27.389-27.854
		c0-11.253,8.846-15.829,19.01-15.829c4.035,0,7.913,1.24,11.949,1.086l0.312,8.688H349.264z"/>
	<path d="M373.704,395.629c-3.027,0-3.882,2.25-3.882,4.656l-0.386,42.054c0,2.407,1.24,4.657,3.569,4.657v1.396
		c-1.63,0-3.959-0.311-6.596-0.311c-2.329,0-4.657,0.311-6.207,0.311v-1.396c2.172,0,3.412-2.25,3.412-4.657l-0.387-42.054
		c0-2.406-0.854-4.656-3.88-4.656v-1.396c2.404,0,4.732,0.31,7.062,0.31c2.637,0,4.966-0.31,7.294-0.31V395.629z"/>
	<path d="M388.132,397.725c-5.042,0-6.748,1.318-8.146,5.432h-1.396l-0.312-9.854h0.388c1.242,0.465,3.103,0.931,4.578,0.931
		c6.363,0,12.727,0.31,19.087,0.31c6.363,0,12.726-0.31,19.089-0.31c1.474,0,3.336-0.466,4.578-0.931h0.388l-0.309,9.854h-1.397
		c-1.396-4.113-3.104-5.432-8.149-5.432h-10.861l-0.232,44.614c0,2.873,1.162,3.647,5.198,4.657v1.396
		c-2.794,0-5.586-0.311-8.38-0.311s-5.588,0.311-8.38,0.311v-1.396c4.267-1.01,5.353-1.784,5.353-4.657l-0.232-44.614H388.132z"/>
	<path d="M448.032,423.407l-13.733-22.19c-1.709-2.872-3.802-4.657-6.055-5.588v-1.396c2.405,0,4.812,0.31,7.219,0.31
		c2.404,0,4.809-0.31,7.214-0.31v1.396c-1.784,0.389-2.794,1.088-2.794,2.482c0,0.466,0.312,1.63,1.01,2.873l11.25,18.932
		l11.562-18.467c1.24-1.862,1.787-3.26,1.787-3.804c0-1.551-1.321-1.86-2.562-2.017v-1.396c2.015,0,4.034,0.31,6.052,0.31
		s4.034-0.31,6.052-0.31v1.396c-3.88,1.396-10.552,10.088-13.501,14.743l-7.294,11.562v20.405c0,2.407,1.008,4.657,3.802,4.657
		v1.396c-2.096,0-4.422-0.311-7.062-0.311c-2.326,0-4.655,0.311-6.905,0.311v-1.396c2.949,0,3.959-2.25,3.959-4.657V423.407z"/>
</g>
</svg>
